<svg width="32" height="33" viewBox="0 0 32 33" fill="none" xmlns="http://www.w3.org/2000/svg">
<path d="M10.0844 15.6318C10.1744 15.5361 10.2824 15.4592 10.4021 15.4053C10.5219 15.3514 10.6511 15.3216 10.7824 15.3177C10.9137 15.3137 11.0445 15.3357 11.1673 15.3823C11.2901 15.4289 11.4025 15.4992 11.4981 15.5893C16.1 19.9243 20.7175 22.5618 26.1512 23.9061C26.8844 21.9061 26.9494 19.7049 26.3162 17.5574C25.4762 14.708 23.52 12.2255 20.6606 10.3786C18.1081 8.72988 15.5569 8.3005 13.0887 7.8855C9.97498 7.36175 7.03373 6.86675 4.22685 3.89488C3.91435 3.56613 3.48873 3.43425 3.08185 3.54113C2.61685 3.66613 2.30498 4.03363 2.1556 4.64113C1.8056 6.063 2.0306 10.048 3.01498 14.2549C4.5956 21.0136 7.1181 24.4336 8.95623 26.113C11.3312 28.2811 14.4325 29.4818 17.5144 29.4818C18.0953 29.4827 18.6754 29.4401 19.25 29.3543C21.8569 28.9593 24.0269 27.6499 25.25 25.7449C19.6569 24.2899 14.8787 21.523 10.125 17.0474C10.0292 16.9572 9.95215 16.849 9.89825 16.729C9.84435 16.609 9.81467 16.4795 9.81089 16.348C9.80712 16.2165 9.82933 16.0855 9.87626 15.9626C9.92318 15.8397 9.9939 15.7273 10.0844 15.6318ZM29.2144 24.5186C28.1625 24.3568 27.1437 24.1536 26.1519 23.908C25.9479 24.4647 25.6942 25.0019 25.3937 25.513C25.3481 25.5911 25.3 25.6686 25.2506 25.7449C26.457 26.0572 27.6786 26.3075 28.9106 26.4949C29.0417 26.5179 29.1761 26.5146 29.3058 26.485C29.4356 26.4554 29.5582 26.4002 29.6664 26.3227C29.7745 26.2451 29.8661 26.1468 29.9358 26.0333C30.0055 25.9199 30.0518 25.7938 30.0721 25.6622C30.0923 25.5306 30.0861 25.3964 30.0538 25.2673C30.0215 25.1381 29.9637 25.0168 29.8839 24.9102C29.8041 24.8037 29.7038 24.7142 29.5889 24.647C29.4741 24.5797 29.3469 24.5361 29.215 24.5186H29.2144Z" fill="#85934E"/>
</svg>
