<?xml version="1.0" encoding="UTF-8"?>
<svg version="1.1" xmlns="http://www.w3.org/2000/svg" width="640" height="360">
<path d="M0 0 C1.64762581 -0.01441132 1.64762581 -0.01441132 3.32853699 -0.02911377 C4.52118668 -0.03336365 5.71383636 -0.03761353 6.94262695 -0.04199219 C8.16617386 -0.04769226 9.38972076 -0.05339233 10.65034485 -0.05926514 C13.24540336 -0.06872729 15.84047396 -0.07525392 18.43554688 -0.07910156 C22.3971066 -0.08878457 26.35814271 -0.11978819 30.31958008 -0.15136719 C32.83975929 -0.15789934 35.35994221 -0.16314898 37.88012695 -0.16699219 C39.65391975 -0.18551239 39.65391975 -0.18551239 41.46354675 -0.20440674 C47.69906305 -0.18761104 52.2418117 0.15535481 57.7434082 3.16113281 C58.4859082 3.53238281 59.2284082 3.90363281 59.9934082 4.28613281 C63.77411362 8.33688862 64.57474377 14.30300219 65.6184082 19.59863281 C66.35442567 23.23519441 66.35442567 23.23519441 68.9309082 24.59863281 C72.19286206 25.25102358 75.43949076 25.77243664 78.7434082 26.16113281 C78.7434082 26.82113281 78.7434082 27.48113281 78.7434082 28.16113281 C80.0634082 28.16113281 81.3834082 28.16113281 82.7434082 28.16113281 C87.07164496 31.71250656 90.17692099 36.21381917 92.7434082 41.16113281 C92.7434082 41.82113281 92.7434082 42.48113281 92.7434082 43.16113281 C93.4034082 43.16113281 94.0634082 43.16113281 94.7434082 43.16113281 C95.51997827 49.33734354 95.88812871 55.34395371 95.87280273 61.56469727 C95.87543121 62.90302361 95.87543121 62.90302361 95.87811279 64.26838684 C95.8824774 67.18708296 95.87961372 70.10571744 95.8762207 73.02441406 C95.87689499 75.06463126 95.87786606 77.10484838 95.87911987 79.14506531 C95.88058928 83.40571869 95.87846557 87.66635103 95.8737793 91.92700195 C95.86806429 97.38901335 95.87137698 102.85097579 95.87735176 108.31298542 C95.88096237 112.51910268 95.87981679 116.7252083 95.87722397 120.93132591 C95.87655703 122.94597568 95.87737501 124.96062651 95.87970352 126.97527504 C95.88224019 129.78505899 95.87837588 132.59476303 95.87280273 135.40454102 C95.87482697 136.23628845 95.8768512 137.06803589 95.87893677 137.92498779 C95.86576052 141.50706939 95.70957038 144.71436366 94.7434082 148.16113281 C94.0834082 148.16113281 93.4234082 148.16113281 92.7434082 148.16113281 C92.6196582 148.70640625 92.4959082 149.25167969 92.3684082 149.81347656 C89.9289181 158.73286227 84.59198447 164.50519774 76.7434082 169.16113281 C76.4134082 169.82113281 76.0834082 170.48113281 75.7434082 171.16113281 C72.2701564 172.31888341 69.38273373 172.22979933 65.7434082 172.16113281 C65.7434082 172.82113281 65.7434082 173.48113281 65.7434082 174.16113281 C52.21803715 174.18426342 38.69267078 174.20205158 25.16728401 174.21294498 C18.88747587 174.21817223 12.60768123 174.22526704 6.32788086 174.23657227 C0.27194968 174.24740673 -5.78396848 174.25341084 -11.8399086 174.25601006 C-14.15485972 174.25786329 -16.4698101 174.26148197 -18.78475571 174.26686287 C-22.01740835 174.27408068 -25.25000666 174.27512344 -28.48266602 174.2746582 C-29.44795227 174.27825348 -30.41323853 174.28184875 -31.40777588 174.28555298 C-32.28559723 174.28417831 -33.16341858 174.28280365 -34.06784058 174.28138733 C-34.83292875 174.28230912 -35.59801693 174.28323092 -36.3862896 174.28418064 C-38.2565918 174.16113281 -38.2565918 174.16113281 -40.2565918 173.16113281 C-42.58574002 172.79971326 -44.91912657 172.46413756 -47.2565918 172.16113281 C-47.2565918 171.50113281 -47.2565918 170.84113281 -47.2565918 170.16113281 C-48.0815918 169.95488281 -48.9065918 169.74863281 -49.7565918 169.53613281 C-56.8030214 166.76789261 -61.38681338 162.56115096 -65.2565918 156.16113281 C-65.9165918 155.83113281 -66.5765918 155.50113281 -67.2565918 155.16113281 C-68.52420942 150.86531754 -69.2565918 147.65168983 -69.2565918 143.16113281 C-69.9165918 143.16113281 -70.5765918 143.16113281 -71.2565918 143.16113281 C-71.14916873 130.56566053 -71.03655129 117.97024652 -70.91725254 105.37488079 C-70.86202512 99.52671394 -70.80860533 93.67854209 -70.75927734 87.83032227 C-70.71163124 82.18930961 -70.65928822 76.54835851 -70.60365105 70.9074192 C-70.58322863 68.75240417 -70.56451537 66.59737226 -70.54751778 64.4423275 C-70.52347137 61.43015806 -70.49341695 58.41810523 -70.46191406 55.40600586 C-70.4561586 54.50977005 -70.45040314 53.61353424 -70.44447327 52.69013977 C-70.43468445 51.86984283 -70.42489563 51.0495459 -70.41481018 50.20439148 C-70.40835763 49.4918455 -70.40190508 48.77929953 -70.395257 48.04516125 C-70.2565918 46.16113281 -70.2565918 46.16113281 -69.2565918 43.16113281 C-68.5965918 43.16113281 -67.9365918 43.16113281 -67.2565918 43.16113281 C-66.8853418 42.07832031 -66.8853418 42.07832031 -66.5065918 40.97363281 C-63.66729988 34.58522599 -58.34141279 29.52558119 -52.2565918 26.16113281 C-44.27615235 23.76599577 -36.11153723 23.83121199 -27.85229492 23.85839844 C-25.23560571 23.80264767 -22.81755956 23.70207966 -20.2565918 23.16113281 C-17.35254996 20.08818798 -16.81610369 16.80010343 -16.0065918 12.72363281 C-14.57210357 7.03937732 -12.15895503 4.25611876 -7.2565918 1.16113281 C-4.6983499 -0.11798813 -2.86437661 0.02017785 0 0 Z M-13.00268555 59.36425781 C-23.71189057 72.65332331 -27.48708964 85.09830028 -26.01049805 101.97363281 C-24.28377898 114.50569697 -17.48552176 122.94205537 -8.2565918 131.16113281 C-7.51151367 131.83402344 -6.76643555 132.50691406 -5.9987793 133.20019531 C5.33834858 142.74938904 19.417306 144.34916723 33.7434082 143.16113281 C47.64220368 140.506127 58.02820127 132.29591822 66.23950195 121.12597656 C73.10764981 110.87470542 75.50885034 97.25313789 73.38354492 85.10400391 C72.30596101 80.90692782 70.61555289 77.05538726 68.7434082 73.16113281 C68.29610352 72.175 67.84879883 71.18886719 67.38793945 70.17285156 C61.40541373 58.05698015 51.39648298 49.63871488 38.6965332 45.06347656 C19.79587286 39.79969162 0.38371007 44.80903358 -13.00268555 59.36425781 Z M-45.2565918 51.16113281 C-45.2565918 51.82113281 -45.2565918 52.48113281 -45.2565918 53.16113281 C-45.8959668 53.36738281 -46.5353418 53.57363281 -47.1940918 53.78613281 C-49.50108919 55.04938914 -49.50108919 55.04938914 -50.3815918 57.84863281 C-50.21994364 62.13230887 -48.7029063 63.65826759 -45.8972168 66.74316406 C-44.20070524 68.39148033 -44.20070524 68.39148033 -41.2565918 69.16113281 C-37.22114005 68.42741431 -34.8244235 67.67218135 -31.7565918 64.91113281 C-29.8955683 61.49925641 -30.23095838 59.83631921 -31.2565918 56.16113281 C-31.9165918 56.16113281 -32.5765918 56.16113281 -33.2565918 56.16113281 C-33.5865918 54.84113281 -33.9165918 53.52113281 -34.2565918 52.16113281 C-35.9065918 51.83113281 -37.5565918 51.50113281 -39.2565918 51.16113281 C-39.2565918 50.50113281 -39.2565918 49.84113281 -39.2565918 49.16113281 C-42.44149186 48.88378271 -42.44149186 48.88378271 -45.2565918 51.16113281 Z " fill="#808D4B" transform="translate(280.256591796875,148.8388671875)"/>
<path d="M0 0 C0.67289063 -0.00386719 1.34578125 -0.00773437 2.0390625 -0.01171875 C6.52609114 -0.00305653 10.49395322 0.48127903 15 1.125 C15.33 8.055 15.66 14.985 16 22.125 C15.34 22.125 14.68 22.125 14 22.125 C14.165 22.805625 14.33 23.48625 14.5 24.1875 C15.63604427 30.86176011 14.64097917 36.66364452 13 43.125 C12.34 43.125 11.68 43.125 11 43.125 C11.0309375 45.0121875 11.0309375 45.0121875 11.0625 46.9375 C11.10886083 49.76551087 10.91692961 51.37421116 10 54.125 C9.34 54.125 8.68 54.125 8 54.125 C7.72736328 54.9603125 7.72736328 54.9603125 7.44921875 55.8125 C6.64494247 58.25420029 5.82312889 60.68959572 5 63.125 C4.76023437 63.86363281 4.52046875 64.60226563 4.2734375 65.36328125 C2.8246665 69.59019006 1.42228741 72.11753531 -2 75.125 C-4.33045607 77.85496283 -5.86102265 79.70806794 -7 83.125 C-8.69381304 84.66818872 -10.45442502 86.13900272 -12.25 87.5625 C-13.20390625 88.32433594 -14.1578125 89.08617188 -15.140625 89.87109375 C-17.01885492 91.35161105 -18.90410084 92.823279 -20.796875 94.28515625 C-23.07210793 95.93599854 -23.07210793 95.93599854 -24 98.125 C-26.21484375 99.1953125 -26.21484375 99.1953125 -28.9375 100.25 C-29.83339844 100.60320312 -30.72929687 100.95640625 -31.65234375 101.3203125 C-34 102.125 -34 102.125 -36 102.125 C-36 102.785 -36 103.445 -36 104.125 C-37.89248819 104.80110423 -39.7891602 105.46550439 -41.6875 106.125 C-42.74324219 106.49625 -43.79898438 106.8675 -44.88671875 107.25 C-47.81060108 108.07176868 -49.99821013 108.19620628 -53 108.125 C-53.07009089 127.70930622 -53.12298858 147.29358698 -53.15543652 166.87799263 C-53.17090332 175.97143879 -53.19198928 185.064807 -53.22631836 194.15820312 C-53.25622642 202.08430022 -53.27557636 210.01034085 -53.28226548 217.9364928 C-53.28617536 222.13307806 -53.29536021 226.32950182 -53.31719017 230.52603531 C-53.33757757 234.47732892 -53.34382927 238.42839473 -53.33932304 242.37973595 C-53.34014724 243.82852988 -53.34609959 245.27733155 -53.35761642 246.72607994 C-53.37259398 248.70763995 -53.36715409 250.68932264 -53.36076355 252.67092896 C-53.36352893 253.77892412 -53.36629431 254.88691929 -53.36914349 256.02849007 C-52.86255806 260.27791302 -51.15834914 263.44539374 -48.75 266.9375 C-46.03270022 268.78138199 -43.2112217 268.82205456 -40 269.125 C-40 269.785 -40 270.445 -40 271.125 C-38.68 271.125 -37.36 271.125 -36 271.125 C-34.42847281 274.26805438 -34.85681411 277.616274 -34.875 281.0625 C-34.87113281 281.79146484 -34.86726563 282.52042969 -34.86328125 283.27148438 C-34.8691696 286.48357736 -34.97738147 289.0571444 -36 292.125 C-40.87160805 295.34764026 -44.9409292 295.5321094 -50.5625 295.375 C-51.30435547 295.36984375 -52.04621094 295.3646875 -52.81054688 295.359375 C-56.65794494 295.304559 -60.24369441 295.04734038 -64 294.125 C-64 293.465 -64 292.805 -64 292.125 C-64.74121094 292.02445312 -65.48242188 291.92390625 -66.24609375 291.8203125 C-72.03990509 290.35747786 -76.49624232 285.39907869 -79.5 280.375 C-81 277.125 -81 277.125 -81 274.125 C-81.66 274.125 -82.32 274.125 -83 274.125 C-84.25578341 266.37360952 -84.13356662 258.63310132 -84.11352539 250.8046875 C-84.11324298 249.25672914 -84.1134023 247.70877066 -84.1139679 246.16081238 C-84.11425377 241.97752338 -84.10839096 237.79426329 -84.10139394 233.61098099 C-84.09512547 229.23211058 -84.09455384 224.85323944 -84.09336853 220.47436523 C-84.0902655 212.19083054 -84.08206599 203.90730911 -84.07201904 195.62378025 C-84.06082594 186.18967689 -84.0553394 176.75557289 -84.05032361 167.32146454 C-84.0398825 147.92263552 -84.02230301 128.52381883 -84 109.125 C-85.64162109 109.14046875 -85.64162109 109.14046875 -87.31640625 109.15625 C-90.41520887 109.12996111 -93.00729941 108.85050317 -96 108.125 C-96 107.465 -96 106.805 -96 106.125 C-99.63 105.795 -103.26 105.465 -107 105.125 C-107 104.465 -107 103.805 -107 103.125 C-107.69480469 103.02574219 -108.38960938 102.92648438 -109.10546875 102.82421875 C-117.89976681 100.69982016 -126.06660269 94.79341258 -133 89.125 C-133.99 88.3825 -134.98 87.64 -136 86.875 C-139.64814251 83.82819966 -142.395076 79.99501671 -145.265625 76.234375 C-146.82959933 74.04067926 -146.82959933 74.04067926 -149 73.125 C-150.12707409 70.4883474 -151.15219747 67.88016155 -152.125 65.1875 C-152.40214844 64.44564453 -152.67929687 63.70378906 -152.96484375 62.93945312 C-155 57.41044489 -155 57.41044489 -155 55.125 C-155.66 55.125 -156.32 55.125 -157 55.125 C-158.12998844 45.78241704 -158.09908936 36.51646903 -158 27.125 C-157.34 27.125 -156.68 27.125 -156 27.125 C-156.185625 26.2175 -156.37125 25.31 -156.5625 24.375 C-156.95734621 21.44185676 -156.94691572 19.8605343 -156 17.125 C-155.34 17.125 -154.68 17.125 -154 17.125 C-153.34 13.165 -152.68 9.205 -152 5.125 C-151.34 5.125 -150.68 5.125 -150 5.125 C-149.67 3.805 -149.34 2.485 -149 1.125 C-146.75006641 1.09792861 -144.50003905 1.07857171 -142.25 1.0625 C-140.99703125 1.05089844 -139.7440625 1.03929688 -138.453125 1.02734375 C-135.71463499 1.10478973 -133.58119707 1.29719185 -131 2.125 C-131 2.785 -131 3.445 -131 4.125 C-130.40832031 4.24617188 -129.81664062 4.36734375 -129.20703125 4.4921875 C-124.93380632 5.39841791 -121.05292566 6.48192203 -117 8.125 C-115.0075675 8.50093066 -113.0081326 8.84479545 -111 9.125 C-111 9.785 -111 10.445 -111 11.125 C-110.31292969 11.30675781 -109.62585938 11.48851562 -108.91796875 11.67578125 C-108.01691406 11.92714844 -107.11585938 12.17851563 -106.1875 12.4375 C-105.29417969 12.68113281 -104.40085937 12.92476562 -103.48046875 13.17578125 C-100.84085402 14.18590153 -99.88326283 15.08073284 -98 17.125 C-96.24684173 18.44055675 -94.47392415 19.72998338 -92.6875 21 C-91.70394531 21.71414062 -90.72039062 22.42828125 -89.70703125 23.1640625 C-87.76518945 24.57070692 -85.82088914 25.97395982 -83.875 27.375 C-79.27974065 31.77046547 -75.69778681 36.97275038 -72 42.125 C-68.80136577 38.9766061 -65.75949245 35.7587887 -62.8125 32.375 C-53.04205644 21.5261055 -42.26523371 13.30280884 -29 7.125 C-28.34 7.125 -27.68 7.125 -27 7.125 C-27 6.465 -27 5.805 -27 5.125 C-25.02 5.125 -23.04 5.125 -21 5.125 C-21 4.465 -21 3.805 -21 3.125 C-14.04827991 0.58168777 -7.36164095 -0.04230828 0 0 Z M-134 25.125 C-134 25.785 -134 26.445 -134 27.125 C-134.66 27.125 -135.32 27.125 -136 27.125 C-136 28.775 -136 30.425 -136 32.125 C-136.99 32.62 -136.99 32.62 -138 33.125 C-137.67 34.445 -137.34 35.765 -137 37.125 C-137.66 37.125 -138.32 37.125 -139 37.125 C-139 38.445 -139 39.765 -139 41.125 C-138.34 41.125 -137.68 41.125 -137 41.125 C-137.03480469 41.70507812 -137.06960938 42.28515625 -137.10546875 42.8828125 C-137.28744524 48.134134 -136.83377711 51.52011219 -134 56.125 C-133.34 56.125 -132.68 56.125 -132 56.125 C-131.67 57.775 -131.34 59.425 -131 61.125 C-130.34 61.125 -129.68 61.125 -129 61.125 C-128.938125 61.82625 -128.87625 62.5275 -128.8125 63.25 C-127.68325193 67.24580087 -125.90277942 69.15310678 -123 72.125 C-122.01 72.125 -121.02 72.125 -120 72.125 C-119.78085937 72.71023437 -119.56171875 73.29546875 -119.3359375 73.8984375 C-117.57356929 76.83571785 -115.53903115 77.97658158 -112.625 79.75 C-111.66851562 80.34039062 -110.71203125 80.93078125 -109.7265625 81.5390625 C-105.97974728 83.71844212 -102.74948811 85.33315839 -98.5 86.25 C-97.37078125 86.50136719 -97.37078125 86.50136719 -96.21875 86.7578125 C-93.71710067 87.23384814 -93.71710067 87.23384814 -90 87.125 C-90 87.785 -90 88.445 -90 89.125 C-87.69 89.125 -85.38 89.125 -83 89.125 C-82.97292861 86.87506641 -82.95357171 84.62503905 -82.9375 82.375 C-82.92589844 81.12203125 -82.91429687 79.8690625 -82.90234375 78.578125 C-82.97978973 75.83963499 -83.17219185 73.70619707 -84 71.125 C-83.34 70.795 -82.68 70.465 -82 70.125 C-82.73224534 67.8262298 -83.48445879 65.53766994 -84.25 63.25 C-84.45496094 62.59902344 -84.65992188 61.94804688 -84.87109375 61.27734375 C-86.1553349 57.39899995 -86.1553349 57.39899995 -89.14453125 54.7890625 C-89.75683594 54.56992188 -90.36914062 54.35078125 -91 54.125 C-91.33333333 52.79166667 -91.66666667 51.45833333 -92 50.125 C-95.57264467 45.18620323 -95.57264467 45.18620323 -101 43.125 C-102.25 41.0625 -102.25 41.0625 -103 39.125 C-103.99 39.125 -104.98 39.125 -106 39.125 C-106.21527344 38.54105469 -106.43054688 37.95710938 -106.65234375 37.35546875 C-109.48804259 32.66218169 -115.15914681 30.37106131 -120 28.125 C-123.14505173 27.36842812 -125.74483646 27.17925273 -129 27.125 C-129 26.465 -129 25.805 -129 25.125 C-130.65 25.125 -132.3 25.125 -134 25.125 Z M-17 30.125 C-17 30.785 -17 31.445 -17 32.125 C-17.59425781 32.23714844 -18.18851563 32.34929688 -18.80078125 32.46484375 C-26.85194602 34.38059524 -31.98210951 38.60248464 -38 44.125 C-38.7425 44.79789063 -39.485 45.47078125 -40.25 46.1640625 C-42.7667605 48.51749547 -42.7667605 48.51749547 -45 51.125 C-45 52.115 -45 53.105 -45 54.125 C-45.5775 54.310625 -46.155 54.49625 -46.75 54.6875 C-50.02690052 56.78107533 -51.53380961 59.56643374 -53 63.125 C-53.3384885 65.91973589 -53.3384885 65.91973589 -53 68.125 C-53.66 68.125 -54.32 68.125 -55 68.125 C-55.53341184 69.70414015 -56.05125763 71.28854387 -56.5625 72.875 C-56.85253906 73.75671875 -57.14257812 74.6384375 -57.44140625 75.546875 C-58.01697435 78.20334316 -57.89248371 79.59531106 -57 82.125 C-57.66 82.125 -58.32 82.125 -59 82.125 C-59 83.445 -59 84.765 -59 86.125 C-57.68 86.125 -56.36 86.125 -55 86.125 C-55 85.465 -55 84.805 -55 84.125 C-54.360625 84.0425 -53.72125 83.96 -53.0625 83.875 C-46.74614944 82.32813864 -40.71423871 79.6871665 -36 75.125 C-36 74.465 -36 73.805 -36 73.125 C-35.1646875 73.0321875 -35.1646875 73.0321875 -34.3125 72.9375 C-30.98470782 71.76827572 -29.26866168 69.77177196 -27 67.125 C-27 66.135 -27 65.145 -27 64.125 C-26.41476562 63.898125 -25.82953125 63.67125 -25.2265625 63.4375 C-20.05446183 60.38868277 -16.80416701 53.77629299 -15.10546875 48.17578125 C-14.63932233 45.82492773 -14.25323477 43.5074741 -14 41.125 C-13.34 41.125 -12.68 41.125 -12 41.125 C-11.47026689 39.50287941 -10.95146893 37.87718416 -10.4375 36.25 C-10.14746094 35.34507813 -9.85742188 34.44015625 -9.55859375 33.5078125 C-8.73252122 31.1269973 -8.73252122 31.1269973 -10 29.125 C-13.62885324 28.97350702 -13.62885324 28.97350702 -17 30.125 Z " fill="#7E8B49" transform="translate(478,28.875)"/>
<path d="M0 0 C0.495 1.98 0.495 1.98 1 4 C1.66 4 2.32 4 3 4 C3.33 26.77 3.66 49.54 4 73 C10.94119363 68.79731062 10.94119363 68.79731062 16 63 C17.32 63 18.64 63 20 63 C20 62.34 20 61.68 20 61 C22.64 60.67 25.28 60.34 28 60 C28 59.34 28 58.68 28 58 C30.05078125 57.77213542 32.1015625 57.54427083 34.15234375 57.31640625 C36.01140229 57.18113386 36.01140229 57.18113386 37 56 C55.42714276 55.90877652 73.82978678 58.05832214 87.8125 71.25 C94.06233434 77.90232814 101 87.49819234 101 97 C101.66 97 102.32 97 103 97 C103.06058594 97.73605469 103.12117187 98.47210938 103.18359375 99.23046875 C103.26738281 100.20628906 103.35117188 101.18210937 103.4375 102.1875 C103.51871094 103.15042969 103.59992188 104.11335938 103.68359375 105.10546875 C103.92447675 107.88760528 103.92447675 107.88760528 104.51268005 110.10612488 C105.19312966 114.14687099 105.13060584 118.10612395 105.11352539 122.1965332 C105.11367142 123.11409897 105.11381744 124.03166473 105.1139679 124.97703552 C105.11327275 128.00164171 105.10549897 131.02618586 105.09765625 134.05078125 C105.09579066 136.15113796 105.09436742 138.25149511 105.09336853 140.35185242 C105.08955449 145.8739645 105.07973368 151.39605019 105.06866455 156.91815186 C105.05842652 162.55545698 105.05386578 168.19276638 105.04882812 173.83007812 C105.03811043 184.88673033 105.02104735 195.94336297 105 207 C101.84455277 208.05181574 99.60440819 208.13303027 96.29101562 208.14526367 C94.53404358 208.15483345 94.53404358 208.15483345 92.74157715 208.16459656 C90.84309021 208.16626579 90.84309021 208.16626579 88.90625 208.16796875 C86.95893982 208.17296135 86.95893982 208.17296135 84.97229004 208.17805481 C82.22517058 208.18403993 79.47808255 208.18589528 76.73095703 208.18530273 C73.2101857 208.185201 69.68961552 208.19886756 66.16889191 208.21607494 C62.81050803 208.22986101 59.45216184 208.22928335 56.09375 208.23046875 C54.19526306 208.24124702 54.19526306 208.24124702 52.25842285 208.25224304 C51.08710815 208.24916641 49.91579346 208.24608978 48.70898438 208.24291992 C47.16035706 208.24505745 47.16035706 208.24505745 45.58044434 208.24723816 C43 208 43 208 40 206 C40.27648308 197.70550755 40.55175379 190.24907101 46.83203125 184.25 C53.75373292 178.74440173 60.3705342 177.64806265 69 177 C69.22331199 175.41870971 69.42804644 173.83478911 69.625 172.25 C69.79902344 170.92742187 69.79902344 170.92742187 69.9765625 169.578125 C70.00207817 166.77140122 69.44843844 165.36615134 68 163 C68.66 163 69.32 163 70 163 C70 148.81 70 134.62 70 120 C69.34 120 68.68 120 68 120 C68.020625 118.948125 68.04125 117.89625 68.0625 116.8125 C68.01103198 113.67295096 67.73482813 111.03116604 67 108 C66.34 108 65.68 108 65 108 C64.773125 107.113125 64.54625 106.22625 64.3125 105.3125 C62.82146572 101.54941348 60.9061699 99.75713555 58 97 C57.67 96.01 57.34 95.02 57 94 C55.34561387 93.30341637 53.67745682 92.63903117 52 92 C51.56429687 91.50628906 51.12859375 91.01257813 50.6796875 90.50390625 C48.39393087 88.45735671 46.5123872 88.35453748 43.5 87.9375 C39.8214531 87.41835024 38.15458608 87.10305739 35 85 C35 85.66 35 86.32 35 87 C33.74896484 87.11214844 33.74896484 87.11214844 32.47265625 87.2265625 C22.04666473 88.44471958 14.81754371 91.82011913 8.15234375 100.0546875 C6.13502798 103.46019006 5.51104091 107.11432686 5 111 C4.34 111 3.68 111 3 111 C3 142.02 3 173.04 3 205 C2.34 205 1.68 205 1 205 C1 205.66 1 206.32 1 207 C-1.43582507 208.21791254 -3.01522392 208.1333186 -5.73754883 208.14526367 C-6.72229691 208.15164352 -7.70704498 208.15802338 -8.72163391 208.16459656 C-10.32315559 208.16626579 -10.32315559 208.16626579 -11.95703125 208.16796875 C-13.05214523 208.17129715 -14.14725922 208.17462555 -15.27555847 208.17805481 C-17.59654316 208.18312519 -19.91753517 208.1854631 -22.23852539 208.18530273 C-25.78739491 208.18748457 -29.33595134 208.20562649 -32.88476562 208.22460938 C-35.13801977 208.2275442 -37.39127539 208.2295284 -39.64453125 208.23046875 C-41.23694389 208.24124702 -41.23694389 208.24124702 -42.86152649 208.25224304 C-44.35283333 208.2476281 -44.35283333 208.2476281 -45.87426758 208.24291992 C-47.18093132 208.24505745 -47.18093132 208.24505745 -48.51399231 208.24723816 C-52.45762653 207.85503629 -55.19404937 206.80595063 -58 204 C-59.2213099 196.35491728 -57.03409714 190.02208718 -52.8125 183.75 C-47.15220485 178.21548919 -41.72947044 176.93236761 -34 175 C-33.67 117.91 -33.34 60.82 -33 2 C-29.86498346 0.95499449 -27.45354587 0.79878264 -24.16015625 0.68359375 C-22.4421582 0.62075195 -22.4421582 0.62075195 -20.68945312 0.55664062 C-19.49255859 0.51732422 -18.29566406 0.47800781 -17.0625 0.4375 C-15.86947266 0.39431641 -14.67644531 0.35113281 -13.44726562 0.30664062 C-8.96149746 0.14778543 -4.48894199 0 0 0 Z " fill="#808D4B" transform="translate(83,114)"/>
<path d="M0 0 C0 0.66 0 1.32 0 2 C3.465 1.505 3.465 1.505 7 1 C7 1.66 7 2.32 7 3 C8.794375 2.938125 8.794375 2.938125 10.625 2.875 C14.42329953 2.86148292 17.44975618 3.57990247 21 5 C21 5.66 21 6.32 21 7 C22.175625 7.3403125 22.175625 7.3403125 23.375 7.6875 C35.78787879 12.18181818 35.78787879 12.18181818 39 17 C40.485 17.495 40.485 17.495 42 18 C43.560234 19.76091627 45.05275012 21.58260808 46.5 23.4375 C48.93187829 26.54625108 50.70677612 28.80451742 54 31 C54 31.99 54 32.98 54 34 C54.66 34 55.32 34 56 34 C56.12375 34.639375 56.2475 35.27875 56.375 35.9375 C56.58125 36.618125 56.7875 37.29875 57 38 C57.66 38.33 58.32 38.66 59 39 C59 40.32 59 41.64 59 43 C59.66 43 60.32 43 61 43 C61.67321284 45.24805002 62.33834123 47.49852224 63 49.75 C63.37125 51.00296875 63.7425 52.2559375 64.125 53.546875 C65 57 65 57 65 61 C65.66 61 66.32 61 67 61 C66.979375 61.804375 66.95875 62.60875 66.9375 63.4375 C66.70366379 65.93354885 66.70366379 65.93354885 68 67 C68.08700342 68.63472882 68.10701063 70.27314055 68.09765625 71.91015625 C68.09443359 72.89951172 68.09121094 73.88886719 68.08789062 74.90820312 C68.07951172 75.94912109 68.07113281 76.99003906 68.0625 78.0625 C68.05798828 79.10728516 68.05347656 80.15207031 68.04882812 81.22851562 C68.03699913 83.8190666 68.02051689 86.40950559 68 89 C67.34 89 66.68 89 66 89 C66.226875 89.763125 66.45375 90.52625 66.6875 91.3125 C67.13314903 96.57115852 65.57013759 101.01459138 64 106 C63.34 106 62.68 106 62 106 C61.67 108.31 61.34 110.62 61 113 C60.34 113 59.68 113 59 113 C58.938125 113.886875 58.87625 114.77375 58.8125 115.6875 C57.79005428 119.85593256 56.11833118 121.08955756 53 124 C52.10656678 125.21583419 51.23304755 126.44643993 50.375 127.6875 C45.19298709 134.76734101 38.48874489 140.51201756 31 145 C30.67 145.66 30.34 146.32 30 147 C28.68 147 27.36 147 26 147 C26 147.66 26 148.32 26 149 C23.91891315 149.67364661 21.8350329 150.33866798 19.75 151 C18.58984375 151.37125 17.4296875 151.7425 16.234375 152.125 C13 153 13 153 9 153 C9 153.66 9 154.32 9 155 C4.38 155 -0.24 155 -5 155 C-5 155.66 -5 156.32 -5 157 C-7.97 157 -10.94 157 -14 157 C-14 156.34 -14 155.68 -14 155 C-14.59167969 155.08378906 -15.18335938 155.16757812 -15.79296875 155.25390625 C-20.11317784 155.81067055 -23.74856613 156.21469539 -28 155 C-28.763125 154.814375 -29.52625 154.62875 -30.3125 154.4375 C-31.1478125 154.2209375 -31.1478125 154.2209375 -32 154 C-32 153.34 -32 152.68 -32 152 C-32.74765625 151.87882813 -33.4953125 151.75765625 -34.265625 151.6328125 C-35.74289062 151.38144531 -35.74289062 151.38144531 -37.25 151.125 C-38.71179688 150.88136719 -38.71179688 150.88136719 -40.203125 150.6328125 C-44.52035383 149.65600933 -46.97609706 148.16866425 -50 145 C-51.14635253 144.09855006 -52.31365703 143.22313116 -53.5 142.375 C-54.0878125 141.94960938 -54.675625 141.52421875 -55.28125 141.0859375 C-57.12410751 139.82563683 -57.12410751 139.82563683 -60 139 C-61.52422233 137.35018632 -62.97359886 135.63033863 -64.375 133.875 C-65.16777344 132.885 -65.96054687 131.895 -66.77734375 130.875 C-68.55629109 128.5739363 -70.27352355 126.25920506 -71.9375 123.875 C-73.68977907 120.96091381 -73.68977907 120.96091381 -76 120 C-76.8515625 117.71484375 -76.8515625 117.71484375 -77.625 114.9375 C-77.88539063 114.01839844 -78.14578125 113.09929687 -78.4140625 112.15234375 C-78.60742188 111.44207031 -78.80078125 110.73179687 -79 110 C-79.66 110 -80.32 110 -81 110 C-81.33820166 108.4176994 -81.67035939 106.83410625 -82 105.25 C-82.185625 104.36828125 -82.37125 103.4865625 -82.5625 102.578125 C-83 100 -83 100 -83 96 C-83.66 96 -84.32 96 -85 96 C-84.979375 95.278125 -84.95875 94.55625 -84.9375 93.8125 C-84.90738698 91.06673126 -84.90738698 91.06673126 -85.50708008 88.70849609 C-86.47148385 83.4092908 -85.89517339 77.98468045 -85.6875 72.625 C-85.65205078 71.4184375 -85.61660156 70.211875 -85.58007812 68.96875 C-85.36026702 62.99776187 -85.03725646 57.63779542 -83 52 C-82.34 52 -81.68 52 -81 52 C-80.4740625 50.14375 -80.4740625 50.14375 -79.9375 48.25 C-76.45295095 37.95767456 -70.45915746 29.91362333 -63.0390625 22.1796875 C-60.96787351 20.17278619 -60.96787351 20.17278619 -60 18 C-58.30242998 17.03471509 -56.60242196 16.07329936 -54.88671875 15.140625 C-52.72501255 13.91241244 -52.72501255 13.91241244 -50.125 11.4375 C-44.31115494 6.90270085 -37.07218468 5.67160729 -30 4 C-30 3.34 -30 2.68 -30 2 C-6.76595745 0 -6.76595745 0 0 0 Z M-11 30 C-11 30.66 -11 31.32 -11 32 C-12.98 31.67 -14.96 31.34 -17 31 C-17 31.66 -17 32.32 -17 33 C-17.94875 32.87625 -18.8975 32.7525 -19.875 32.625 C-26.95339554 32.59622603 -33.98655855 38.42892103 -39 43 C-42.32341983 46.46700403 -42.32341983 46.46700403 -43 51 C-43.99 51.33 -44.98 51.66 -46 52 C-48.1519437 55.22791555 -48.20086443 56.28400809 -48 60 C-48.66 60 -49.32 60 -50 60 C-52.32637691 65.79622721 -53.43680971 69.86090397 -52 76 C-52.66 76 -53.32 76 -54 76 C-53.67 79.63 -53.34 83.26 -53 87 C-52.34 87 -51.68 87 -51 87 C-50.855625 88.051875 -50.71125 89.10375 -50.5625 90.1875 C-50.12473034 93.15460549 -49.62195134 96.06794366 -49 99 C-48.34 99 -47.68 99 -47 99 C-46.855625 100.11375 -46.71125 101.2275 -46.5625 102.375 C-44.47216803 110.72150285 -36.9224394 116.94233244 -29.82421875 121.2578125 C-27.7107221 122.25123721 -27.7107221 122.25123721 -24 122 C-24 122.66 -24 123.32 -24 124 C-22.02 124 -20.04 124 -18 124 C-18 124.66 -18 125.32 -18 126 C-10.9066169 128.03832848 -3.8933746 127.39769551 3 125 C3 124.34 3 123.68 3 123 C3.928125 123 4.85625 123 5.8125 123 C12.70806938 122.04306384 18.81737805 116.41294889 23.33203125 111.421875 C25.28360257 109.07832504 25.28360257 109.07832504 25 106 C25.99 105.67 26.98 105.34 28 105 C33.15317197 97.0179354 35.64202524 89.35954384 34 80 C34.66 80 35.32 80 36 80 C36 79.34 36 78.68 36 78 C35.34 78 34.68 78 34 78 C34.33 75.36 34.66 72.72 35 70 C34.34 70 33.68 70 33 70 C33.226875 69.319375 33.45375 68.63875 33.6875 67.9375 C34.12290176 63.84472345 32.79836785 61.66867041 31 58 C30.34 58 29.68 58 29 58 C28.01 54.535 28.01 54.535 27 51 C26.34 51 25.68 51 25 51 C24.938125 50.443125 24.87625 49.88625 24.8125 49.3125 C23.65552926 46.01958329 21.5346398 44.35780446 19 42 C18.319375 41.236875 17.63875 40.47375 16.9375 39.6875 C14.92550404 37.56214617 14.92550404 37.56214617 11 38 C10.505 36.515 10.505 36.515 10 35 C4.55538121 32.46543608 -1.05827036 31.61249589 -7 32 C-7 31.34 -7 30.68 -7 30 C-8.32 30 -9.64 30 -11 30 Z " fill="#7E8C4A" transform="translate(549,169)"/>
<path d="M0 0 C5.28 0.33 10.56 0.66 16 1 C16 1.66 16 2.32 16 3 C17.299375 3.3403125 17.299375 3.3403125 18.625 3.6875 C24.53557007 5.98605503 28.3687157 9.56204482 31.25390625 15.12890625 C32.54451827 18.365572 32.84949722 21.56251645 33 25 C33.06316406 25.87011719 33.12632812 26.74023438 33.19140625 27.63671875 C33.61401373 37.4112208 30.17495435 44.55838835 24 52 C23.01 52 22.02 52 21 52 C21 52.66 21 53.32 21 54 C18.29120665 55.35439668 15.99066732 55.06501451 13 55 C13 55.66 13 56.32 13 57 C1.34679168 56.63977718 -6.68049215 54.83942362 -15.3359375 46.8046875 C-18.40334299 43.47806465 -20 40.52318886 -20 36 C-20.66 36 -21.32 36 -22 36 C-22 31.05 -22 26.1 -22 21 C-21.34 21 -20.68 21 -20 21 C-19.9175 20.13375 -19.835 19.2675 -19.75 18.375 C-18.42423692 12.40906613 -15.51924013 9.13983437 -10.625 5.6875 C-7.10947355 3.46196838 -4.23120346 2.21698479 0 2 C0 1.34 0 0.68 0 0 Z " fill="#7E8B4A" transform="translate(298,214)"/>
</svg>
