<svg width="64" height="64" viewBox="20.8 19.3 32.4004 41.66" fill="none" xmlns="http://www.w3.org/2000/svg">
<g filter="url(#filter0_d_80_259)">
<path d="M37.0002 20.9C45.0901 20.9001 51.7001 27.3484 51.7004 35.3658C51.7004 39.9066 49.4398 44.7166 46.9045 48.7281C44.6601 52.2793 42.0869 55.3797 40.3019 57.3766L39.5881 58.1627C38.1828 59.6871 35.8176 59.6871 34.4123 58.1627H34.4113C32.655 56.256 29.6598 52.7865 27.0949 48.7281C24.5596 44.7166 22.3 39.9065 22.3 35.3658C22.3002 27.3483 28.9102 20.9 37.0002 20.9Z" fill="#85934E" stroke="white" stroke-width="3"/>
<path d="M37.5755 32.8695L36.7647 37.7354L35.9539 32.8695C35.9345 32.7518 35.9409 32.6313 35.9727 32.5164C36.0045 32.4015 36.0609 32.2948 36.138 32.2039C36.2152 32.1129 36.3112 32.0399 36.4194 31.9898C36.5276 31.9397 36.6454 31.9137 36.7647 31.9137C36.884 31.9137 37.0018 31.9397 37.11 31.9898C37.2182 32.0399 37.3142 32.1129 37.3914 32.2039C37.4685 32.2948 37.5249 32.4015 37.5567 32.5164C37.5885 32.6313 37.5949 32.7518 37.5755 32.8695Z" stroke="white" stroke-width="1.94118" stroke-linecap="round" stroke-linejoin="round"/>
<path d="M36.7647 41.9412C37.122 41.9412 37.4117 41.6515 37.4117 41.2942C37.4117 40.9368 37.122 40.6471 36.7647 40.6471C36.4073 40.6471 36.1176 40.9368 36.1176 41.2942C36.1176 41.6515 36.4073 41.9412 36.7647 41.9412Z" stroke="white" stroke-width="1.29412"/>
</g>
<defs>
<filter id="filter0_d_80_259" x="17" y="17" width="40" height="50" filterUnits="userSpaceOnUse" color-interpolation-filters="sRGB">
<feFlood flood-opacity="0" result="BackgroundImageFix"/>
<feColorMatrix in="SourceAlpha" type="matrix" values="0 0 0 0 0 0 0 0 0 0 0 0 0 0 0 0 0 0 127 0" result="hardAlpha"/>
<feOffset dy="1"/>
<feGaussianBlur stdDeviation="5"/>
<feComposite in2="hardAlpha" operator="out"/>
<feColorMatrix type="matrix" values="0 0 0 0 0 0 0 0 0 0 0 0 0 0 0 0 0 0 0.01 0"/>
<feBlend mode="normal" in2="BackgroundImageFix" result="effect1_dropShadow_80_259"/>
<feBlend mode="normal" in="SourceGraphic" in2="effect1_dropShadow_80_259" result="shape"/>
</filter>
</defs>
</svg>