<svg width="64" height="64" viewBox="20.8 19.3 32.4004 41.66" fill="none" xmlns="http://www.w3.org/2000/svg">
<g filter="url(#filter0_d_1078_1030)">
<path d="M37.0002 20.9C45.0901 20.9001 51.7001 27.3484 51.7004 35.3658C51.7004 39.9065 49.4398 44.7166 46.9045 48.7281C44.6601 52.2793 42.0869 55.3797 40.3019 57.3766L39.5881 58.1627C38.1828 59.6871 35.8176 59.6871 34.4123 58.1627H34.4113C32.655 56.256 29.6598 52.7864 27.0949 48.7281C24.5596 44.7166 22.3 39.9064 22.3 35.3658C22.3002 27.3483 28.9102 20.9 37.0002 20.9Z" fill="#824E93" stroke="white" stroke-width="3"/>
<path d="M37 39.9562L33.8875 41.8312C33.75 41.9187 33.6063 41.9562 33.4563 41.9437C33.3063 41.9312 33.175 41.8812 33.0625 41.7937C32.95 41.7062 32.8625 41.597 32.8 41.466C32.7375 41.335 32.725 41.188 32.7625 41.025L33.5875 37.4812L30.8313 35.1C30.7063 34.9875 30.6283 34.8592 30.5973 34.7152C30.5663 34.5712 30.5755 34.4307 30.625 34.2937C30.6745 34.1567 30.7495 34.0442 30.85 33.9562C30.9505 33.8682 31.088 33.812 31.2625 33.7875L34.9 33.4687L36.3063 30.1312C36.3688 29.9812 36.4658 29.8687 36.5973 29.7937C36.7288 29.7187 36.863 29.6812 37 29.6812C37.137 29.6812 37.2713 29.7187 37.4028 29.7937C37.5343 29.8687 37.6313 29.9812 37.6938 30.1312L39.1 33.4687L42.7375 33.7875C42.9125 33.8125 43.05 33.8687 43.15 33.9562C43.25 34.0437 43.325 34.1562 43.375 34.2937C43.425 34.4312 43.4345 34.572 43.4035 34.716C43.3725 34.86 43.2943 34.988 43.1688 35.1L40.4125 37.4812L41.2375 41.025C41.275 41.1875 41.2625 41.3345 41.2 41.466C41.1375 41.5975 41.05 41.7067 40.9375 41.7937C40.825 41.8807 40.6938 41.9307 40.5438 41.9437C40.3938 41.9567 40.25 41.9192 40.1125 41.8312L37 39.9562Z" fill="white"/>
</g>
<defs>
<filter id="filter0_d_1078_1030" x="-5" y="-1" width="84" height="84" filterUnits="userSpaceOnUse" color-interpolation-filters="sRGB">
<feFlood flood-opacity="0" result="BackgroundImageFix"/>
<feColorMatrix in="SourceAlpha" type="matrix" values="0 0 0 0 0 0 0 0 0 0 0 0 0 0 0 0 0 0 127 0" result="hardAlpha"/>
<feOffset dy="1"/>
<feGaussianBlur stdDeviation="10"/>
<feComposite in2="hardAlpha" operator="out"/>
<feColorMatrix type="matrix" values="0 0 0 0 0 0 0 0 0 0 0 0 0 0 0 0 0 0 0.01 0"/>
<feBlend mode="normal" in2="BackgroundImageFix" result="effect1_dropShadow_1078_1030"/>
<feBlend mode="normal" in="SourceGraphic" in2="effect1_dropShadow_1078_1030" result="shape"/>
</filter>
</defs>
</svg>
