<svg width="100" height="100" viewBox="12.6543 18.7 68.6914 70.9" fill="none" xmlns="http://www.w3.org/2000/svg">
<g filter="url(#filter0_d_1056_1034)">
<path d="M47 20.5C61.0526 20.5 72.5 31.6962 72.5 45.5752C72.4999 53.4712 68.5493 61.9694 63.9707 69.2139C59.3626 76.505 53.9719 82.7519 50.8037 86.1914H50.8027C48.7337 88.4358 45.2663 88.4358 43.1973 86.1914H43.1963C40.0281 82.7519 34.6374 76.505 30.0293 69.2139C25.4507 61.9694 21.5001 53.4712 21.5 45.5752C21.5 31.6962 32.9474 20.5 47 20.5Z" fill="white" stroke="#824E93" stroke-width="3"/>
<path d="M41.0844 48.125C41.1744 48.0294 41.2824 47.9524 41.4021 47.8985C41.5219 47.8446 41.6511 47.8148 41.7824 47.8109C41.9137 47.807 42.0445 47.8289 42.1673 47.8755C42.2901 47.9221 42.4025 47.9924 42.4981 48.0825C47.1 52.4175 51.7175 55.055 57.1512 56.3994C57.8844 54.3994 57.9494 52.1981 57.3162 50.0506C56.4762 47.2012 54.52 44.7187 51.6606 42.8719C49.1081 41.2231 46.5569 40.7937 44.0887 40.3787C40.975 39.855 38.0337 39.36 35.2269 36.3881C34.9144 36.0594 34.4887 35.9275 34.0819 36.0344C33.6169 36.1594 33.305 36.5269 33.1556 37.1344C32.8056 38.5562 33.0306 42.5412 34.015 46.7481C35.5956 53.5069 38.1181 56.9269 39.9562 58.6062C42.3312 60.7744 45.4325 61.975 48.5144 61.975C49.0953 61.9759 49.6754 61.9333 50.25 61.8475C52.8569 61.4525 55.0269 60.1431 56.25 58.2381C50.6569 56.7831 45.8787 54.0162 41.125 49.5406C41.0292 49.4504 40.9521 49.3422 40.8982 49.2222C40.8444 49.1022 40.8147 48.9727 40.8109 48.8412C40.8071 48.7097 40.8293 48.5788 40.8763 48.4559C40.9232 48.333 40.9939 48.2205 41.0844 48.125ZM60.2144 57.0119C59.1625 56.85 58.1437 56.6469 57.1519 56.4012C56.9479 56.958 56.6942 57.4951 56.3937 58.0062C56.3481 58.0844 56.3 58.1619 56.2506 58.2381C57.457 58.5504 58.6786 58.8008 59.9106 58.9881C60.0417 59.0112 60.1761 59.0078 60.3058 58.9782C60.4356 58.9487 60.5582 58.8935 60.6664 58.8159C60.7745 58.7384 60.8661 58.64 60.9358 58.5266C61.0055 58.4132 61.0518 58.287 61.0721 58.1554C61.0923 58.0239 61.0861 57.8896 61.0538 57.7605C61.0215 57.6314 60.9637 57.51 60.8839 57.4035C60.8041 57.297 60.7038 57.2075 60.5889 57.1402C60.4741 57.073 60.3469 57.0293 60.215 57.0119H60.2144Z" fill="#824E93"/>
</g>
<defs>
<filter id="filter0_d_1056_1034" x="-13" y="-5" width="120" height="120" filterUnits="userSpaceOnUse" color-interpolation-filters="sRGB">
<feFlood flood-opacity="0" result="BackgroundImageFix"/>
<feColorMatrix in="SourceAlpha" type="matrix" values="0 0 0 0 0 0 0 0 0 0 0 0 0 0 0 0 0 0 127 0" result="hardAlpha"/>
<feOffset dy="1"/>
<feGaussianBlur stdDeviation="10"/>
<feComposite in2="hardAlpha" operator="out"/>
<feColorMatrix type="matrix" values="0 0 0 0 0 0 0 0 0 0 0 0 0 0 0 0 0 0 0.1 0"/>
<feBlend mode="normal" in2="BackgroundImageFix" result="effect1_dropShadow_1056_1034"/>
<feBlend mode="normal" in="SourceGraphic" in2="effect1_dropShadow_1056_1034" result="shape"/>
</filter>
</defs>
</svg>
