<svg width="100" height="100" viewBox="12.6543 18.7 68.6914 70.9" fill="none" xmlns="http://www.w3.org/2000/svg">
<g filter="url(#filter0_d_122_594)">
<path d="M47 20.5C61.0526 20.5 72.5 31.6962 72.5 45.5752C72.4999 53.4712 68.5493 61.9694 63.9707 69.2139C59.3626 76.505 53.9719 82.7519 50.8037 86.1914H50.8027C48.7337 88.4358 45.2663 88.4358 43.1973 86.1914H43.1963C40.0281 82.7519 34.6374 76.505 30.0293 69.2139C25.4507 61.9694 21.5001 53.4712 21.5 45.5752C21.5 31.6962 32.9474 20.5 47 20.5Z" fill="white" stroke="#85934E" stroke-width="3"/>
<path d="M41.0844 48.125C41.1744 48.0294 41.2824 47.9524 41.4022 47.8985C41.522 47.8447 41.6512 47.8149 41.7825 47.8109C41.9138 47.807 42.0445 47.8289 42.1673 47.8755C42.2901 47.9221 42.4026 47.9925 42.4982 48.0825C47.1 52.4175 51.7175 55.055 57.1513 56.3994C57.8844 54.3994 57.9494 52.1982 57.3163 50.0507C56.4763 47.2013 54.52 44.7188 51.6607 42.8719C49.1082 41.2232 46.5569 40.7938 44.0888 40.3788C40.975 39.855 38.0338 39.36 35.2269 36.3882C34.9144 36.0594 34.4888 35.9275 34.0819 36.0344C33.6169 36.1594 33.305 36.5269 33.1557 37.1344C32.8057 38.5563 33.0307 42.5413 34.015 46.7482C35.5957 53.5069 38.1182 56.9269 39.9563 58.6063C42.3313 60.7744 45.4325 61.975 48.5144 61.975C49.0953 61.976 49.6755 61.9333 50.25 61.8475C52.8569 61.4525 55.0269 60.1432 56.25 58.2382C50.6569 56.7832 45.8788 54.0163 41.125 49.5407C41.0293 49.4505 40.9522 49.3423 40.8983 49.2223C40.8444 49.1023 40.8147 48.9728 40.811 48.8413C40.8072 48.7098 40.8294 48.5788 40.8763 48.4559C40.9232 48.333 40.994 48.2206 41.0844 48.125ZM60.2144 57.0119C59.1625 56.85 58.1438 56.6469 57.1519 56.4013C56.948 56.958 56.6943 57.4952 56.3938 58.0063C56.3482 58.0844 56.3 58.1619 56.2507 58.2382C57.4571 58.5505 58.6787 58.8008 59.9107 58.9882C60.0418 59.0112 60.1761 59.0078 60.3059 58.9783C60.4357 58.9487 60.5583 58.8935 60.6664 58.816C60.7746 58.7384 60.8662 58.6401 60.9359 58.5266C61.0055 58.4132 61.0519 58.287 61.0721 58.1555C61.0924 58.0239 61.0862 57.8897 61.0539 57.7605C61.0216 57.6314 60.9638 57.51 60.884 57.4035C60.8041 57.297 60.7039 57.2075 60.589 57.1403C60.4741 57.073 60.347 57.0294 60.215 57.0119H60.2144Z" fill="#85934E"/>
</g>
<defs>
<filter id="filter0_d_122_594" x="-13" y="-5" width="120" height="120" filterUnits="userSpaceOnUse" color-interpolation-filters="sRGB">
<feFlood flood-opacity="0" result="BackgroundImageFix"/>
<feColorMatrix in="SourceAlpha" type="matrix" values="0 0 0 0 0 0 0 0 0 0 0 0 0 0 0 0 0 0 127 0" result="hardAlpha"/>
<feOffset dy="1"/>
<feGaussianBlur stdDeviation="10"/>
<feComposite in2="hardAlpha" operator="out"/>
<feColorMatrix type="matrix" values="0 0 0 0 0 0 0 0 0 0 0 0 0 0 0 0 0 0 0.1 0"/>
<feBlend mode="normal" in2="BackgroundImageFix" result="effect1_dropShadow_122_594"/>
<feBlend mode="normal" in="SourceGraphic" in2="effect1_dropShadow_122_594" result="shape"/>
</filter>
</defs>
</svg>
