<svg width="32" height="33" viewBox="0 0 32 33" fill="none" xmlns="http://www.w3.org/2000/svg">
<path d="M4.334 4.50001C3.046 4.50001 2 5.54601 2 6.83401V12.842C1.99986 13.9617 2.2252 15.07 2.66258 16.1008C3.09996 17.1315 3.74043 18.0637 4.54579 18.8416C5.35116 19.6195 6.30492 20.2273 7.35022 20.6287C8.39553 21.0301 9.51095 21.2169 10.63 21.178C10.2121 19.9968 9.999 18.7529 10 17.5C10 16.412 10.16 15.36 10.452 14.366L8.292 12.206C8.19649 12.1138 8.12031 12.0034 8.0679 11.8814C8.01549 11.7594 7.9879 11.6282 7.98675 11.4954C7.9856 11.3626 8.0109 11.2309 8.06118 11.1081C8.11146 10.9852 8.18571 10.8735 8.2796 10.7796C8.3735 10.6857 8.48515 10.6115 8.60805 10.5612C8.73094 10.5109 8.86262 10.4856 8.9954 10.4868C9.12818 10.4879 9.2594 10.5155 9.3814 10.5679C9.50341 10.6203 9.61375 10.6965 9.706 10.792L11.274 12.358C12.4504 10.1378 14.3489 8.38531 16.656 7.39001C15.8738 6.48195 14.9047 5.7536 13.8149 5.2548C12.7252 4.75601 11.5405 4.49853 10.342 4.50001H4.334ZM13.968 23.12L10.402 26.688C10.2145 26.8758 10.1093 27.1303 10.1094 27.3957C10.1096 27.6611 10.2152 27.9155 10.403 28.103C10.5908 28.2905 10.8453 28.3957 11.1107 28.3956C11.3761 28.3954 11.6305 28.2898 11.818 28.102L15.384 24.532C16.7082 25.5894 18.3039 26.2515 19.9877 26.4421C21.6715 26.6327 23.3749 26.344 24.9019 25.6094C26.4289 24.8747 27.7175 23.7238 28.6194 22.2892C29.5213 20.8546 29.9998 19.1946 30 17.5V10.954C30 9.60001 28.9 8.50001 27.546 8.50001H21C19.3047 8.49956 17.6438 8.97792 16.2085 9.88C14.7732 10.7821 13.6218 12.0712 12.887 13.5989C12.1522 15.1267 11.8638 16.8309 12.0551 18.5153C12.2463 20.1997 12.9094 21.7959 13.968 23.12ZM21.714 18.198L16.806 23.106C16.2693 22.7042 15.7931 22.2273 15.392 21.69L20.3 16.784C20.3922 16.6885 20.5026 16.6123 20.6246 16.5599C20.7466 16.5075 20.8778 16.4799 21.0106 16.4788C21.1434 16.4776 21.2751 16.5029 21.398 16.5532C21.5209 16.6035 21.6325 16.6777 21.7264 16.7716C21.8203 16.8655 21.8945 16.9772 21.9448 17.1001C21.9951 17.2229 22.0204 17.3546 22.0193 17.4874C22.0181 17.6202 21.9905 17.7514 21.9381 17.8734C21.8857 17.9954 21.8095 18.1058 21.714 18.198Z" fill="#85934E"/>
</svg>
